# xmcd
#
# Track frame offsets:
#       215
#       23502
#       41280
#       55380
#       77052
#       97190
#       117477
#       131507
#       143357
#       160740
#
# Disc length: 2424 seconds
#
# Revision: 2
# Processed by: cddbd v1.5.2PL0 Copyright (c) Steve Scherf et al.
# Submitted via: FreeDbEdit v0.1
#
DISCID=7809760a
DTITLE=The Simpsons - Sing the Blues
DYEAR=1990
DGENRE=Blues
TTITLE0=Do the Bartman
TTITLE1=School Day
TTITLE2=Born Under a Bad Sign
TTITLE3=Moanin' Lisa Blues
TTITLE4=Deep, Deep Trouble
TTITLE5=God Bless the Child
TTITLE6=I Love to See You Smile
TTITLE7=Springfield Soul Stew
TTITLE8=Look at All Those Idiots
TTITLE9=Sibling Rivalry
EXTD=
EXTT0=
EXTT1=
EXTT2=
EXTT3=
EXTT4=
EXTT5=
EXTT6=
EXTT7=
EXTT8=
EXTT9=
PLAYORDER=
